<svg width="41" height="41" fill="none" xmlns="http://www.w3.org/2000/svg"><path d="M34.575.643h-28.4C2.932.643.293 3.275.293 6.51v28.323c0 3.235 2.64 5.868 5.884 5.868h28.399c3.244 0 5.884-2.633 5.884-5.868V6.51c0-3.236-2.64-5.868-5.884-5.868Zm3.53 34.19a3.53 3.53 0 0 1-3.53 3.521h-28.4a3.53 3.53 0 0 1-3.53-3.52V6.51a3.53 3.53 0 0 1 3.53-3.521h28.4a3.53 3.53 0 0 1 3.53 3.52v28.324Z" fill="#070707" stroke="#070707" stroke-width=".5"/><mask id="a" fill="#fff"><path d="M31.42 29.679h-4.312v-7.202c0-.497-.036-.988-.161-1.472-.515-1.999-2.741-1.882-3.627-.935-.445.476-.736 1.014-.748 1.679-.002.158-.012.317-.012.475v7.453h-4.304V16.313h4.302v1.793l.034.015c.03-.041.062-.082.092-.125.432-.598.927-1.13 1.585-1.488.736-.402 1.53-.536 2.356-.512.895.026 1.744.227 2.51.709.98.617 1.579 1.52 1.929 2.604.273.845.362 1.716.363 2.598.002 2.539 0 5.077 0 7.616 0 .05-.004.1-.007.157Z"/></mask><path d="M31.42 29.679h-4.312v-7.202c0-.497-.036-.988-.161-1.472-.515-1.999-2.741-1.882-3.627-.935-.445.476-.736 1.014-.748 1.679-.002.158-.012.317-.012.475v7.453h-4.304V16.313h4.302v1.793l.034.015c.03-.041.062-.082.092-.125.432-.598.927-1.13 1.585-1.488.736-.402 1.53-.536 2.356-.512.895.026 1.744.227 2.51.709.98.617 1.579 1.52 1.929 2.604.273.845.362 1.716.363 2.598.002 2.539 0 5.077 0 7.616 0 .05-.004.1-.007.157Z" fill="#070707"/><path d="M31.42 29.679v.03h.029l.001-.029-.03-.001Zm-4.312 0h-.03v.03h.03v-.03Zm0-7.202h.031-.03Zm-.161-1.472.03-.008-.03.008Zm-3.627-.935.023.021-.023-.02Zm-.748 1.679h-.03.03Zm-.012.475h.03-.03Zm0 7.453v.031h.03v-.03h-.03Zm-4.304 0h-.03v.031h.03v-.03Zm0-13.365v-.03h-.03v.03h.03Zm4.302 0h.03v-.03h-.03v.03Zm0 1.793h-.031v.02l.018.008.012-.028Zm.034.015-.012.028.022.01.015-.02-.025-.018Zm.092-.125.025.018-.025-.018Zm1.585-1.488.015.027-.015-.027Zm2.356-.512.001-.03v.03Zm2.51.709.016-.026-.016.026Zm1.929 2.604-.03.01.03-.01Zm.363 2.598h.03-.03Zm0 7.616h-.03.03Zm-.007.126h-4.312v.061h4.312v-.06Zm-4.281.03v-.198h-.061v.199h.061Zm0-.198v-7.003h-.06c-.002 2.334-.001 4.669-.001 7.003h.061Zm0-7.003c0-.498-.037-.992-.162-1.48l-.06.015c.124.482.161.97.161 1.465h.061Zm-.162-1.48c-.261-1.012-.957-1.49-1.7-1.595-.74-.103-1.529.166-1.979.647l.045.042c.435-.466 1.203-.729 1.925-.628.72.1 1.395.563 1.65 1.55l.059-.016Zm-3.679-.948c-.448.48-.744 1.025-.756 1.7h.06c.013-.655.3-1.186.74-1.658l-.044-.042Zm-.756 1.7c-.003.155-.012.317-.012.475h.06c0-.159.01-.314.013-.474l-.061-.002Zm-.012.475-.001 7.248h.061v-7.248h-.06Zm-.001 7.248v.206h.061v-.206h-.061Zm.03.175h-4.302v.061h4.303v-.061Zm-4.273.03V16.313h-.06v13.364h.06Zm-.03-13.334h4.302v-.061h-4.302v.061Zm4.27-.03v1.791h.062v-1.792h-.061Zm.02 1.82.034.015.024-.056-.034-.015-.025.056Zm.07.006.093-.125-.05-.036-.092.124.05.037Zm.093-.126c.43-.597.922-1.123 1.575-1.48l-.03-.053c-.663.362-1.162.897-1.594 1.498l.05.035Zm1.575-1.48c.73-.397 1.518-.531 2.34-.508l.002-.06c-.83-.025-1.63.11-2.371.515l.03.054Zm2.34-.508c.891.026 1.735.227 2.494.705l.033-.052c-.77-.485-1.626-.688-2.525-.714l-.002.061Zm2.494.705c.974.613 1.568 1.51 1.917 2.587l.058-.018c-.352-1.09-.953-2-1.942-2.621l-.033.052Zm1.917 2.587c.271.841.36 1.709.361 2.589h.062c-.001-.884-.091-1.759-.365-2.607l-.058.018Zm.361 2.589c.002 2.539.001 5.077.001 7.616h.061c0-2.538.002-5.077 0-7.616h-.062Zm.001 7.616c0 .049-.005.096-.008.155l.061.003c.003-.055.008-.107.008-.158h-.061Z" fill="#070707" mask="url(#a)"/><path d="M15.61 29.67h-4.25V16.325h4.25V29.67ZM13.67 9.672c.67-.001 1.24.236 1.645.643.404.406.643.982.645 1.659.002.67-.238 1.24-.648 1.644-.41.403-.991.64-1.675.64-1.332.002-2.281-.95-2.284-2.29-.002-1.34.96-2.295 2.316-2.296Z" fill="#070707" stroke="#070707" stroke-width=".031"/></svg>